<?xml version="1.0" encoding="UTF-8"?>
<svg width="100px" height="100px" viewBox="0 0 100 100" version="1.1" xmlns="http://www.w3.org/2000/svg" xmlns:xlink="http://www.w3.org/1999/xlink">
    <title>AlayaScanlogo</title>
    <g id="AlayaScanlogo" stroke="none" stroke-width="1" fill="none" fill-rule="evenodd">
        <g transform="translate(10.000000, 1.000000)">
            <g id="Group" transform="translate(6.000000, 0.000000)" fill-rule="nonzero">
                <polygon id="Rectangle-path" fill="#FBB613" points="24.9520285 24.9547511 41.2615817 24.9547511 41.2615817 41.2217195 24.9520285 41.2217195"></polygon>
                <g id="Shape" transform="translate(9.073465, 9.049774)" fill="#1D2337">
                    <path d="M8.05270011,47.918552 L41.0347451,47.918552 C44.8456003,47.918552 47.9532621,44.8190045 47.9532621,41.0180995 L47.9532621,8.12217195 L40.3769189,8.12217195 L40.3769189,40.3393665 L8.05270011,40.3393665 L8.05270011,47.918552 Z" id="路径"></path>
                    <path d="M40.0366639,7.760181 L40.0366639,0.180995475 L7.05461897,0.180995475 C3.24376371,0.180995475 0.136101974,3.28054299 0.136101974,7.08144796 L0.136101974,39.9773756 L7.71244518,39.9773756 L7.71244518,7.760181 L40.0366639,7.760181 Z" id="路径"></path>
                </g>
                <polygon id="Rectangle-path" fill="#00B6DC" points="57.026727 0.20361991 66.0775082 0.20361991 66.0775082 9.23076923 57.026727 9.23076923"></polygon>
                <polygon id="Rectangle-path" fill="#EA106E" points="0.158785636 56.9683258 9.20956689 56.9683258 9.20956689 65.9954751 0.158785636 65.9954751"></polygon>
            </g>
            <text id="AlayaScan" font-family="Gilroy-Bold, Gilroy" font-size="16" font-weight="bold" fill="#1D2337">
                <tspan x="0" y="94">AlayaScan</tspan>
            </text>
        </g>
    </g>
</svg>