<?xml version="1.0" encoding="UTF-8"?>
<svg width="110px" height="40px" viewBox="0 0 110 40" version="1.1" xmlns="http://www.w3.org/2000/svg" xmlns:xlink="http://www.w3.org/1999/xlink">
    <title>1.logo</title>
    <defs>
        <path d="M42.9101081,10.2811765 L42.9101081,15.5970588 L58.7584324,15.5970588 L58.7584324,18.7005882 L47.1477838,18.7005882 C45.8569189,18.7005882 44.8276757,19.1070588 44.0606486,19.9188235 L44.0606486,19.9188235 C43.293027,20.7311765 42.9101081,21.7223529 42.9101081,22.8923529 L42.9101081,22.8923529 L42.9101081,27.1205882 C42.9101081,28.3147059 43.3120541,29.3123529 44.1153514,30.1123529 L44.1153514,30.1123529 C44.9186486,30.9123529 45.9294595,31.3123529 47.1477838,31.3123529 L47.1477838,31.3123529 L56.6440541,31.3123529 L56.6440541,26.3776471 L48.224,26.3776471 L48.224,23.3623529 L58.7584324,23.3623529 L58.7584324,31.3123529 L63.9516216,31.3123529 L63.9516216,14.4729412 C63.9516216,13.2782353 63.5556216,12.2817647 62.7642162,11.4811765 L62.7642162,11.4811765 C61.9728108,10.6811765 60.9560541,10.2811765 59.7145405,10.2811765 L59.7145405,10.2811765 L42.9101081,10.2811765 Z" id="path-1"></path>
        <path d="M88.9608649,10.2811765 L88.9608649,15.5970588 L104.809189,15.5970588 L104.809189,18.7005882 L93.1979459,18.7005882 C91.9064865,18.7005882 90.879027,19.1070588 90.1108108,19.9188235 L90.1108108,19.9188235 C89.3437838,20.7311765 88.9608649,21.7223529 88.9608649,22.8923529 L88.9608649,22.8923529 L88.9608649,27.1205882 C88.9608649,28.3147059 89.3628108,29.3123529 90.1661081,30.1123529 L90.1661081,30.1123529 C90.9694054,30.9123529 91.9802162,31.3123529 93.1979459,31.3123529 L93.1979459,31.3123529 L102.694811,31.3123529 L102.694811,26.3776471 L94.2741622,26.3776471 L94.2741622,23.3623529 L104.809189,23.3623529 L104.809189,31.3123529 L110.001784,31.3123529 L110.001784,14.4729412 C110.001784,13.2782353 109.605784,12.2817647 108.814378,11.4811765 L108.814378,11.4811765 C108.023568,10.6811765 107.006811,10.2811765 105.765297,10.2811765 L105.765297,10.2811765 L88.9608649,10.2811765 Z" id="path-3"></path>
        <polygon id="path-5" points="0 31.3123529 5.67659459 31.3123529 16.2419459 10.8752941 13.2297297 5.38588235"></polygon>
        <path d="M10.1164324,27.4123529 L13.8671351,27.4123529 C15.0224324,27.4123529 16.0796216,26.7694118 16.6022703,25.7494118 L16.6022703,25.7494118 L17.1879459,24.6041176 L20.8690811,31.3123529 L27.456,31.3123529 L17.4477838,13.0764706 L10.1164324,27.4123529 Z" id="path-7"></path>
        <path d="M27.456,5.38588235 L27.456,26.5047059 L27.456,27.8364706 C27.456,29.7564706 28.9514054,31.3123529 30.7952432,31.3123529 L30.7952432,31.3123529 L30.9694595,31.3123529 L32.6587027,31.3123529 L40.7719459,31.3123529 L40.7719459,26.5047059 L32.6587027,26.5047059 L32.6587027,9.44 L30.4343243,5.38588235 L27.456,5.38588235 Z" id="path-9"></path>
        <path d="M8.22264865,0.159411765 C7.3367027,0.159411765 6.61843243,0.87 6.61843243,1.74705882 L6.61843243,1.74705882 L6.61843243,3.41941176 L19.9343784,3.41941176 L19.9343784,1.74705882 C19.9343784,0.87 19.2161081,0.159411765 18.3301622,0.159411765 L18.3301622,0.159411765 L8.22264865,0.159411765 Z" id="path-11"></path>
        <path d="M65.3001622,9.58529412 L74.5270811,27.3158824 L76.2139459,23.0441176 C76.711027,21.7858824 76.6224324,20.3752941 75.9707568,19.1876471 L75.9707568,19.1876471 L70.7026486,9.58529412 L65.3001622,9.58529412 Z" id="path-13"></path>
        <polygon id="path-15" points="82.3364865 9.58529412 70.5444865 40 75.8012973 40 87.7698919 9.58529412"></polygon>
    </defs>
    <g id="手机端" stroke="none" stroke-width="1" fill="none" fill-rule="evenodd">
        <g id="1.首页" transform="translate(-40.000000, -45.000000)">
            <g id="分组">
                <g id="编组">
                    <g id="1.logo" transform="translate(40.000000, 45.000000)">
                        <mask id="mask-2" fill="white">
                            <use xlink:href="#path-1"></use>
                        </mask>
                        <use id="蒙版" fill="#FFFFFF" xlink:href="#path-1"></use>
                        <mask id="mask-4" fill="white">
                            <use xlink:href="#path-3"></use>
                        </mask>
                        <use id="Clip-4" fill="#FFFFFF" xlink:href="#path-3"></use>
                        <mask id="mask-6" fill="white">
                            <use xlink:href="#path-5"></use>
                        </mask>
                        <use id="Clip-6" fill="#FFFFFF" xlink:href="#path-5"></use>
                        <mask id="mask-8" fill="white">
                            <use xlink:href="#path-7"></use>
                        </mask>
                        <use id="Clip-8" fill="#FFFFFF" xlink:href="#path-7"></use>
                        <mask id="mask-10" fill="white">
                            <use xlink:href="#path-9"></use>
                        </mask>
                        <use id="Clip-10" fill="#FFFFFF" xlink:href="#path-9"></use>
                        <mask id="mask-12" fill="white">
                            <use xlink:href="#path-11"></use>
                        </mask>
                        <use id="Clip-12" fill="#FCB54D" xlink:href="#path-11"></use>
                        <mask id="mask-14" fill="white">
                            <use xlink:href="#path-13"></use>
                        </mask>
                        <use id="Clip-14" fill="#FCB54D" xlink:href="#path-13"></use>
                        <mask id="mask-16" fill="white">
                            <use xlink:href="#path-15"></use>
                        </mask>
                        <use id="Clip-16" fill="#FFFFFF" xlink:href="#path-15"></use>
                    </g>
                </g>
            </g>
        </g>
    </g>
</svg>