<?xml version="1.0" encoding="UTF-8"?>
<svg width="80px" height="30px" viewBox="0 0 80 30" version="1.1" xmlns="http://www.w3.org/2000/svg" xmlns:xlink="http://www.w3.org/1999/xlink">
    <title>alaya-logo</title>
    <defs>
        <path d="M31.2073514,7.55805405 L31.2073514,11.4659459 L42.7334054,11.4659459 L42.7334054,13.7474595 L34.2892973,13.7474595 C33.3504865,13.7474595 32.6019459,14.0462703 32.0441081,14.643027 L32.0441081,14.643027 C31.4858378,15.2402162 31.2073514,15.9688649 31.2073514,16.828973 L31.2073514,16.828973 L31.2073514,19.9372973 C31.2073514,20.8151351 31.4996757,21.5485405 32.0838919,22.1366486 L32.0838919,22.1366486 C32.6681081,22.7247568 33.4032432,23.0188108 34.2892973,23.0188108 L34.2892973,23.0188108 L41.1956757,23.0188108 L41.1956757,19.3911351 L35.072,19.3911351 L35.072,17.1744865 L42.7334054,17.1744865 L42.7334054,23.0188108 L46.5102703,23.0188108 L46.5102703,10.6395676 C46.5102703,9.7612973 46.2222703,9.02875676 45.6467027,8.44021622 L45.6467027,8.44021622 C45.0711351,7.85210811 44.3316757,7.55805405 43.4287568,7.55805405 L43.4287568,7.55805405 L31.2073514,7.55805405 Z" id="path-1"></path>
        <path d="M64.6988108,7.55805405 L64.6988108,11.4659459 L76.2248649,11.4659459 L76.2248649,13.7474595 L67.7803243,13.7474595 C66.8410811,13.7474595 66.0938378,14.0462703 65.5351351,14.643027 L65.5351351,14.643027 C64.9772973,15.2402162 64.6988108,15.9688649 64.6988108,16.828973 L64.6988108,16.828973 L64.6988108,19.9372973 C64.6988108,20.8151351 64.9911351,21.5485405 65.5753514,22.1366486 L65.5753514,22.1366486 C66.1595676,22.7247568 66.8947027,23.0188108 67.7803243,23.0188108 L67.7803243,23.0188108 L74.6871351,23.0188108 L74.6871351,19.3911351 L68.563027,19.3911351 L68.563027,17.1744865 L76.2248649,17.1744865 L76.2248649,23.0188108 L80.0012973,23.0188108 L80.0012973,10.6395676 C80.0012973,9.7612973 79.7132973,9.02875676 79.1377297,8.44021622 L79.1377297,8.44021622 C78.5625946,7.85210811 77.8231351,7.55805405 76.9202162,7.55805405 L76.9202162,7.55805405 L64.6988108,7.55805405 Z" id="path-3"></path>
        <polygon id="path-5" points="0 23.0188108 4.12843243 23.0188108 11.8123243 7.99481081 9.62162162 3.95935135"></polygon>
        <path d="M7.35740541,20.1517838 L10.0851892,20.1517838 C10.9254054,20.1517838 11.6942703,19.6791351 12.0743784,18.9292973 L12.0743784,18.9292973 L12.5003243,18.0873514 L15.1775135,23.0188108 L19.968,23.0188108 L12.6892973,9.61297297 L7.35740541,20.1517838 Z" id="path-7"></path>
        <path d="M19.968,3.95935135 L19.968,19.4845405 L19.968,20.4635676 C19.968,21.875027 21.0555676,23.0188108 22.3965405,23.0188108 L22.3965405,23.0188108 L22.5232432,23.0188108 L23.7517838,23.0188108 L29.6523243,23.0188108 L29.6523243,19.4845405 L23.7517838,19.4845405 L23.7517838,6.93967568 L22.1340541,3.95935135 L19.968,3.95935135 Z" id="path-9"></path>
        <path d="M5.98010811,0.117189189 C5.33578378,0.117189189 4.81340541,0.639567568 4.81340541,1.28432432 L4.81340541,1.28432432 L4.81340541,2.51372973 L14.4977297,2.51372973 L14.4977297,1.28432432 C14.4977297,0.639567568 13.9753514,0.117189189 13.331027,0.117189189 L13.331027,0.117189189 L5.98010811,0.117189189 Z" id="path-11"></path>
        <path d="M47.491027,7.04648649 L54.2015135,20.0808649 L55.4283243,16.9405405 C55.7898378,16.0155676 55.7254054,14.9785946 55.2514595,14.1055135 L55.2514595,14.1055135 L51.4201081,7.04648649 L47.491027,7.04648649 Z" id="path-13"></path>
        <polygon id="path-15" points="59.8810811 7.04648649 51.3050811 29.4054054 55.1282162 29.4054054 63.8326486 7.04648649"></polygon>
    </defs>
    <g id="页面-1" stroke="none" stroke-width="1" fill="none" fill-rule="evenodd">
        <g id="首页备份-12" transform="translate(-200.000000, -30.000000)">
            <g id="alaya-logo" transform="translate(200.000000, 30.000000)">
                <mask id="mask-2" fill="white">
                    <use xlink:href="#path-1"></use>
                </mask>
                <use id="蒙版" fill="#FFFFFF" xlink:href="#path-1"></use>
                <mask id="mask-4" fill="white">
                    <use xlink:href="#path-3"></use>
                </mask>
                <use id="Clip-4" fill="#FFFFFF" xlink:href="#path-3"></use>
                <mask id="mask-6" fill="white">
                    <use xlink:href="#path-5"></use>
                </mask>
                <use id="Clip-6" fill="#FFFFFF" xlink:href="#path-5"></use>
                <mask id="mask-8" fill="white">
                    <use xlink:href="#path-7"></use>
                </mask>
                <use id="Clip-8" fill="#FFFFFF" xlink:href="#path-7"></use>
                <mask id="mask-10" fill="white">
                    <use xlink:href="#path-9"></use>
                </mask>
                <use id="Clip-10" fill="#FFFFFF" xlink:href="#path-9"></use>
                <mask id="mask-12" fill="white">
                    <use xlink:href="#path-11"></use>
                </mask>
                <use id="Clip-12" fill="#FFFFFF" xlink:href="#path-11"></use>
                <mask id="mask-14" fill="white">
                    <use xlink:href="#path-13"></use>
                </mask>
                <use id="Clip-14" fill="#FFFFFF" xlink:href="#path-13"></use>
                <mask id="mask-16" fill="white">
                    <use xlink:href="#path-15"></use>
                </mask>
                <use id="Clip-16" fill="#FFFFFF" xlink:href="#path-15"></use>
            </g>
        </g>
    </g>
</svg>