<svg width="110" height="40" viewBox="0 0 110 40" xmlns="http://www.w3.org/2000/svg" xmlns:xlink="http://www.w3.org/1999/xlink"><defs><path d="M42.91 10.281v5.316h15.848v3.104h-11.61c-1.291 0-2.32.406-3.087 1.218-.768.812-1.15 1.803-1.15 2.973v4.229c0 1.194.401 2.191 1.204 2.991.804.8 1.814 1.2 3.033 1.2h9.496v-4.934h-8.42v-3.016h10.534v7.95h5.194v-16.84c0-1.194-.396-2.19-1.188-2.99-.791-.8-1.808-1.2-3.05-1.2H42.91z" id="a"/><path d="M88.96 10.281v5.316h15.85v3.104H93.197c-1.292 0-2.319.406-3.087 1.218-.767.812-1.15 1.803-1.15 2.973v4.229c0 1.194.402 2.191 1.205 2.991.803.8 1.814 1.2 3.032 1.2h9.497v-4.934h-8.42v-3.016h10.534v7.95h5.193v-16.84c0-1.194-.396-2.19-1.188-2.99-.79-.8-1.807-1.2-3.049-1.2H88.961z" id="b"/><path id="c" d="M0 31.312h5.677l10.565-20.437-3.012-5.49z"/><path d="M10.116 27.412h3.751a3.07 3.07 0 002.735-1.663l.586-1.145 3.681 6.708h6.587L17.448 13.076l-7.332 14.336z" id="d"/><path d="M27.456 5.386v22.45c0 1.92 1.495 3.476 3.34 3.476h9.975v-4.807h-8.113V9.44l-2.225-4.054h-2.978z" id="e"/><path d="M8.223.16c-.886 0-1.605.71-1.605 1.587V3.42h13.316V1.747C19.934.87 19.216.16 18.33.16H8.223z" id="f"/><path d="M65.3 9.585l9.227 17.73 1.687-4.27a4.54 4.54 0 00-.243-3.857l-5.268-9.603H65.3z" id="g"/><path id="h" d="M82.336 9.585L70.544 40h5.257L87.77 9.585z"/></defs><g fill="none" fill-rule="evenodd"><use fill="#FFF" xlink:href="#a"/><use fill="#FFF" xlink:href="#b"/><use fill="#FFF" xlink:href="#c"/><use fill="#FFF" xlink:href="#d"/><use fill="#FFF" xlink:href="#e"/><use fill="#FCB54D" xlink:href="#f"/><use fill="#FCB54D" xlink:href="#g"/><use fill="#FFF" xlink:href="#h"/></g></svg>